#N canvas 519 65 507 740 10;
#X declare -lib Gem;
#X obj 4 6 cnv 15 480 60 empty empty A/V_Combination 20 30 0 20 -262130
-99865 0;
#X obj 26 570 dac~;
#X obj 28 276 soundfiler;
#X obj 28 165 openpanel;
#X obj 28 146 bng 15 250 50 0 empty empty empty 17 7 0 10 -262144 -1
-1;
#X floatatom 28 344 20 0 0 0 - - -, f 20;
#N canvas 0 396 450 300 sample 0;
#N canvas 0 50 450 300 (subpatch) 0;
#X array \$0-soundfile 214599 float 2;
#X coords 0 1 214599 -1 200 140 1;
#X restore 17 27 graph;
#X restore 27 112 pd sample;
#X msg 293 111 create \, 1;
#X msg 305 133 0 \, destroy;
#X obj 295 491 pix_film;
#X obj 295 644 pix_texture;
#X obj 295 264 gemhead;
#X obj 323 324 bng 15 250 50 0 empty empty empty 17 7 0 10 -262144
-1 -1;
#X obj 323 342 openpanel;
#X msg 323 361 open \$1;
#X text 27 85 Audio;
#X text 291 87 Video;
#X text 94 114 Storage for the sample;
#X text 359 113 Gem window;
#X text 48 144 loading the audio into the buffer;
#X text 340 324 opening the video file;
#X obj 28 188 t a b;
#X obj 55 208 symbol \$0-soundfile;
#X obj 28 231 pack s s;
#X msg 28 254 read -resize \$1 \$2;
#X obj 270 110 cnv 15 20 20 empty empty 1 6 10 0 14 -261234 -66577
0;
#X obj 300 320 cnv 15 20 20 empty empty 3 6 10 0 14 -261234 -66577
0;
#X obj 5 142 cnv 15 20 20 empty empty 2 6 10 0 14 -261234 -66577 0
;
#N canvas 0 113 215 152 init 1;
#X obj 17 19 declare -lib Gem;
#X obj 17 42 loadbang;
#X msg 17 65 \; pd dsp 1;
#X connect 1 0 2 0;
#X restore 438 71 pd init;
#X obj 295 666 square 4;
#X obj 26 542 tabplay~ \$0-soundfile;
#X obj 26 431 t b b;
#X msg 26 405 bang;
#X msg 330 431 auto 1;
#X msg 340 467 1;
#X obj 330 408 loadbang;
#X obj 317 514 unpack f f f;
#X obj 317 592 s \$0-frames;
#X floatatom 327 571 5 0 0 0 - - -, f 5;
#X obj 28 299 / 48000;
#X obj 37 323 s \$0-seconds;
#X obj 406 514 r \$0-seconds;
#X obj 391 551 /;
#X floatatom 399 572 5 0 0 0 - - -, f 5;
#X obj 391 592 s \$0-framerate;
#X obj 317 156 r \$0-framerate;
#X msg 317 176 frame \$1;
#X obj 293 200 gemwin;
#X text 65 406 start playback;
#X text 22 703 Max Neupert - Bauhaus-Universität Weimar 2013;
#X connect 2 0 39 0;
#X connect 3 0 21 0;
#X connect 4 0 3 0;
#X connect 7 0 47 0;
#X connect 8 0 47 0;
#X connect 9 0 10 0;
#X connect 9 1 36 0;
#X connect 10 0 29 0;
#X connect 11 0 9 0;
#X connect 12 0 13 0;
#X connect 13 0 14 0;
#X connect 14 0 9 0;
#X connect 21 0 23 0;
#X connect 21 1 22 0;
#X connect 22 0 23 1;
#X connect 23 0 24 0;
#X connect 24 0 2 0;
#X connect 30 0 1 0;
#X connect 30 0 1 1;
#X connect 31 0 30 0;
#X connect 31 1 34 0;
#X connect 32 0 31 0;
#X connect 33 0 9 0;
#X connect 34 0 9 1;
#X connect 35 0 33 0;
#X connect 36 0 37 0;
#X connect 36 0 38 0;
#X connect 36 0 42 0;
#X connect 39 0 5 0;
#X connect 39 0 40 0;
#X connect 41 0 42 1;
#X connect 42 0 43 0;
#X connect 42 0 44 0;
#X connect 45 0 46 0;
#X connect 46 0 47 0;
