#N canvas 638 120 654 703 10;
#X declare -lib Gem;
#X declare -lib iemlib;
#X obj 14 12 cnv 15 480 60 empty empty recording_live 20 30 0 20 -262130
-99865 0;
#X obj 280 595 dac~;
#X obj 280 514 vline~;
#X msg 272 92 create \, 1;
#X msg 284 114 0 \, destroy;
#X obj 43 241 hsl 195 15 0 1 0 0 \$0-scratch empty empty -2 -8 0 10
-262144 -1 -1 0 1;
#X obj 280 565 tabread4~ \$0-soundfile;
#X obj 271 201 bng 15 250 50 0 empty empty empty 17 7 0 10 -262144
-1 -1;
#N canvas 0 22 450 300 (subpatch) 0;
#X array \$0-soundfile 156224 float 2;
#X coords 0 1 156224 -1 200 140 1;
#X restore 40 91 graph;
#X obj 43 256 hsl 195 15 0 1 0 0 \$0-in \$0-in-init empty -2 -8 0 10
-262144 -1 -1 0 1;
#X obj 43 271 hsl 195 15 0 1 0 0 \$0-out \$0-out-init empty -2 -8 0
10 -262144 -1 -1 13500 1;
#X obj 43 231 hsl 195 10 0 1 0 0 empty \$0-playhead empty -2 -8 0 10
-228856 -1 -1 8450 1;
#N canvas 374 553 146 180 scratch 0;
#X obj 23 134 outlet;
#X obj 23 59 *;
#X obj 38 37 r \$0-samples;
#X obj 23 16 r \$0-scratch;
#X obj 23 106 pack f f;
#X obj 68 60 r \$0-speed;
#X obj 68 84 * 900;
#X floatatom 88 137 5 0 0 0 - - -;
#X connect 1 0 4 0;
#X connect 2 0 1 1;
#X connect 3 0 1 0;
#X connect 4 0 0 0;
#X connect 5 0 6 0;
#X connect 5 0 7 0;
#X connect 6 0 4 1;
#X restore 213 482 pd scratch;
#X text 19 256 in;
#X text 16 271 out;
#X text -8 242 scratch;
#X text -16 227 playhead;
#N canvas 1063 214 596 730 video_processing 0;
#X obj 172 32 inlet~;
#X obj 103 478 pix_texture;
#X obj 103 65 gemhead;
#X obj 130 200 *;
#X obj 130 110 snapshot~;
#X obj 103 87 t a b;
#X obj 130 156 /;
#X obj 130 245 int;
#X obj 130 267 change;
#X obj 103 504 rectangle 3 2;
#X text 173 379 this takes care of the;
#X text 197 393 right aspect ratio;
#X text 234 407 of the video;
#X obj 128 353 cnv 15 45 110 empty empty empty 20 12 0 14 -261234 -66577
0;
#X obj 131 359 /;
#X obj 131 436 *;
#X obj 131 380 t b f;
#X msg 131 402 3;
#X obj 103 298 pix_buffer_read \$0-speicher;
#X obj 145 133 r \$0-samples;
#X obj 145 178 r \$0-frames;
#X obj 20 243 s \$0-playhead;
#X obj 20 222 speedlim 100;
#X obj 130 223 + 0.5;
#X obj 104 320 pix_info;
#X connect 0 0 4 0;
#X connect 1 0 9 0;
#X connect 2 0 5 0;
#X connect 3 0 23 0;
#X connect 4 0 6 0;
#X connect 5 0 18 0;
#X connect 5 1 4 0;
#X connect 6 0 3 0;
#X connect 6 0 22 0;
#X connect 7 0 8 0;
#X connect 8 0 18 1;
#X connect 14 0 16 0;
#X connect 15 0 9 1;
#X connect 16 0 17 0;
#X connect 16 1 15 1;
#X connect 17 0 15 0;
#X connect 17 0 9 2;
#X connect 18 0 24 0;
#X connect 19 0 6 1;
#X connect 20 0 3 1;
#X connect 22 0 21 0;
#X connect 23 0 7 0;
#X connect 24 0 1 0;
#X connect 24 1 14 0;
#X connect 24 2 14 1;
#X restore 289 542 pd video_processing;
#X obj 43 286 hsl 195 15 1 0.0001 0 0 \$0-speed \$0-speed-init empty
-2 -8 0 10 -262144 -1 -1 13751 1;
#X text 1 286 speed;
#N canvas 0 22 450 300 init 0;
#X obj 14 42 loadbang;
#X msg 44 73 \; pd dsp 1;
#X obj 37 141 s \$0-in-init;
#X msg 37 121 0;
#X msg 25 172 1;
#X obj 25 192 s \$0-out-init;
#X msg 14 226 0.25;
#X obj 14 247 s \$0-speed-init;
#X text 15 12 this subpatch initializes the patch;
#X text 118 82 switches audio comptation on;
#X text 116 123 sets the in-point to the beginning of the sample;
#X text 115 175 sets the outpoint to the end of the sample;
#X text 114 229 sets speed to normal speed;
#X obj 299 30 declare -lib Gem;
#X obj 299 50 declare -lib iemlib;
#X connect 0 0 1 0;
#X connect 0 0 3 0;
#X connect 0 0 4 0;
#X connect 0 0 6 0;
#X connect 3 0 2 0;
#X connect 4 0 5 0;
#X connect 6 0 7 0;
#X restore 503 14 pd init;
#N canvas 0 22 450 300 inpoint 0;
#X obj 24 -59 inlet;
#X obj 24 59 outlet;
#X obj 24 -33 t l b;
#X obj 66 -33 r \$0-in;
#X obj 66 9 *;
#X obj 51 30 f;
#X obj 81 -12 r \$0-samples;
#X connect 0 0 2 0;
#X connect 2 0 1 0;
#X connect 2 1 5 0;
#X connect 3 0 4 0;
#X connect 4 0 5 1;
#X connect 5 0 1 0;
#X connect 6 0 4 1;
#X restore 280 482 pd inpoint;
#N canvas 0 22 450 300 outpoint 0;
#X obj 38 -25 inlet;
#X obj 38 174 outlet;
#X obj 38 149 pack f f;
#X obj 82 19 *;
#X obj 97 -2 r \$0-samples;
#X obj 82 -24 r \$0-out;
#X obj 38 123 f;
#X obj 65 123 f;
#X obj 38 1 t b b;
#X obj 236 -23 inlet;
#X connect 0 0 8 0;
#X connect 2 0 1 0;
#X connect 3 0 6 1;
#X connect 4 0 3 1;
#X connect 5 0 3 0;
#X connect 6 0 2 0;
#X connect 7 0 2 1;
#X connect 8 0 6 0;
#X connect 8 1 7 0;
#X connect 9 0 7 1;
#X restore 280 460 pd outpoint;
#N canvas 0 22 450 300 speed 0;
#X obj 21 194 outlet;
#X obj 21 -85 r \$0-out;
#X obj 47 -64 r \$0-in;
#X obj 62 -43 r \$0-samples;
#X obj 47 -16 *;
#X obj 21 32 -;
#X obj 47 5 t b f;
#X obj 21 55 / 48;
#X obj 21 -16 *;
#X obj 21 171 abs;
#X obj 21 148 *;
#X obj 52 79 r \$0-speed;
#X obj 52 123 t b f;
#X text 54 56 Samplingrate of the audio file;
#X obj 52 102 * 4;
#X floatatom 88 153 5 0 0 0 - - -;
#X connect 1 0 8 0;
#X connect 2 0 4 0;
#X connect 3 0 4 1;
#X connect 3 0 8 1;
#X connect 4 0 6 0;
#X connect 5 0 7 0;
#X connect 6 0 5 0;
#X connect 6 1 5 1;
#X connect 7 0 10 0;
#X connect 8 0 5 0;
#X connect 9 0 0 0;
#X connect 10 0 9 0;
#X connect 11 0 14 0;
#X connect 12 0 10 0;
#X connect 12 1 10 1;
#X connect 12 1 15 0;
#X connect 14 0 12 0;
#X restore 316 392 pd speed;
#X obj 316 414 t f f;
#X obj 289 349 tgl 15 0 empty empty empty 17 7 0 10 -262144 -1 -1 1
1;
#X obj 289 437 metro;
#X text 306 346 play looping;
#X text 306 324 play once;
#X obj 280 326 bng 15 250 50 0 empty empty empty 17 7 0 10 -262144
-1 -1;
#X text 185 297 |;
#X text 152 307 normal speed;
#X obj 248 91 cnv 15 20 20 empty empty 1 6 10 0 14 -261234 -66577 0
;
#X text 336 92 create Gem window;
#X obj 248 199 cnv 15 20 20 empty empty 2 6 10 0 14 -261234 -66577
0;
#X text 271 269 choose in \, out and speed;
#X obj 249 267 cnv 15 20 20 empty empty 3 6 10 0 14 -261234 -66577
0;
#X obj 251 334 cnv 15 20 20 empty empty 4 6 10 0 14 -261234 -66577
0;
#X text 289 199 record;
#X obj 272 176 gemwin 20;
#X msg 293 155 frame \$1;
#X floatatom 293 137 5 1 60 0 - - -;
#X text 334 133 while recording the framrate;
#X text 361 144 must be consistent;
#X obj 334 201 bng 15 250 50 0 empty empty empty 17 7 0 10 -262144
-1 -1;
#X text 352 201 stop;
#X obj 271 241 bng 15 250 50 0 empty empty empty 17 7 0 10 -262144
-1 -1;
#X text 289 241 end;
#X floatatom 334 240 5 0 0 0 - - -;
#N canvas 736 86 818 806 recorder 0;
#X obj 19 81 inlet;
#X obj 257 139 outlet;
#X obj 118 345 t f f;
#X obj 118 553 s \$0-samples;
#X obj 145 369 s \$0-miliseconds;
#X text 181 13 Storage for the video;
#X obj 16 21 pix_buffer \$0-speicher 800;
#X text 185 26 maximum 800 frames in this case;
#X obj 19 738 tabwrite~ \$0-soundfile;
#X obj 316 534 pix_buffer_write \$0-speicher;
#X obj 316 198 gemhead;
#X obj 316 432 t a b;
#X obj 510 457 + 1;
#X obj 19 182 t b b;
#X obj 316 249 pix_video;
#X msg 335 225 dialog;
#X msg 383 224 device 1;
#X obj 257 162 inlet;
#X msg 267 662 stop;
#X obj 118 253 timer;
#X obj 246 101 r \$0-stop;
#X obj 517 512 > 798;
#X obj 517 533 sel 1;
#X obj 517 557 s \$0-stop;
#X obj 481 482 t f f;
#X obj 316 406 spigot 0;
#X obj 246 194 t b b;
#X obj 18 247 t b b;
#X msg 390 383 1;
#X obj 246 265 t b b;
#X msg 360 316 0;
#X obj 42 694 adc~;
#X obj 481 457 f;
#X msg 496 428 0;
#X obj 390 361 t b b;
#X obj 378 513 s \$0-frames;
#X obj 360 290 t b b;
#X obj 378 492 f;
#X obj 118 468 * 48;
#X obj 139 419 samplerate~;
#X obj 117 390 t f b;
#X floatatom 152 471 5 0 0 0 - - -;
#X obj 139 442 / 1000;
#X obj 508 589 outlet;
#X obj 45 655 s \$0-soundfile;
#X msg 180 630 resize \$1;
#X msg 45 581 resize 1.92e+06;
#X obj 18 544 t b b;
#X obj 237 598 f;
#X obj 241 547 t b b b;
#X msg 106 616 normalize;
#X connect 0 0 13 0;
#X connect 2 0 40 0;
#X connect 2 1 4 0;
#X connect 10 0 14 0;
#X connect 11 0 9 0;
#X connect 11 1 32 0;
#X connect 12 0 32 1;
#X connect 13 0 27 0;
#X connect 13 1 19 0;
#X connect 14 0 25 0;
#X connect 15 0 14 0;
#X connect 16 0 14 0;
#X connect 17 0 26 0;
#X connect 18 0 8 0;
#X connect 19 0 2 0;
#X connect 20 0 1 0;
#X connect 20 0 26 0;
#X connect 21 0 22 0;
#X connect 22 0 23 0;
#X connect 24 0 9 1;
#X connect 24 1 21 0;
#X connect 24 1 43 0;
#X connect 25 0 11 0;
#X connect 26 0 29 0;
#X connect 26 1 19 1;
#X connect 27 0 47 0;
#X connect 27 1 34 0;
#X connect 28 0 25 1;
#X connect 29 0 49 0;
#X connect 29 1 36 0;
#X connect 30 0 25 1;
#X connect 31 0 8 0;
#X connect 32 0 12 0;
#X connect 32 0 24 0;
#X connect 32 0 37 1;
#X connect 33 0 32 1;
#X connect 34 0 28 0;
#X connect 34 1 33 0;
#X connect 36 0 30 0;
#X connect 36 1 37 0;
#X connect 37 0 35 0;
#X connect 38 0 3 0;
#X connect 38 0 48 1;
#X connect 39 0 42 0;
#X connect 40 0 38 0;
#X connect 40 1 39 0;
#X connect 42 0 38 1;
#X connect 42 0 41 0;
#X connect 45 0 44 0;
#X connect 46 0 44 0;
#X connect 47 0 8 0;
#X connect 47 1 46 0;
#X connect 48 0 45 0;
#X connect 49 0 50 0;
#X connect 49 1 48 0;
#X connect 49 2 18 0;
#X connect 50 0 44 0;
#X restore 271 220 pd recorder;
#X text 370 240 # frames;
#X text 39 635 Max Neupert \, GMU - Bauhaus-University Weimar 2012
;
#X connect 2 0 6 0;
#X connect 2 0 17 0;
#X connect 3 0 39 0;
#X connect 4 0 39 0;
#X connect 6 0 1 0;
#X connect 6 0 1 1;
#X connect 7 0 49 0;
#X connect 12 0 2 0;
#X connect 21 0 2 0;
#X connect 22 0 21 0;
#X connect 23 0 24 0;
#X connect 24 0 26 1;
#X connect 24 1 22 1;
#X connect 25 0 26 0;
#X connect 26 0 22 0;
#X connect 29 0 22 0;
#X connect 40 0 39 0;
#X connect 41 0 40 0;
#X connect 44 0 49 1;
#X connect 49 0 46 0;
#X connect 49 1 48 0;
