#N canvas 786 110 518 650 10;
#X declare -lib Gem;
#X msg 291 174 0 \, destroy;
#N canvas 0 22 151 133 init 0;
#X obj 23 26 loadbang;
#X msg 34 53 \; pd dsp 1;
#X obj 24 4 declare -lib Gem;
#X obj 23 110 s \$0-volume;
#X msg 23 89 0.6;
#X connect 0 0 1 0;
#X connect 0 0 4 0;
#X connect 4 0 3 0;
#X restore 446 80 pd init;
#X obj 283 131 cnv 15 20 20 empty empty 1 6 10 0 14 -261234 -66577
0;
#X obj 12 12 cnv 15 480 60 empty empty A/V_delay_subtract 20 30 0 20
-262130 -99865 0;
#X msg 284 152 reset \, create \, 1;
#X obj 284 258 gemhead;
#X obj 284 303 pix_video;
#X obj 29 573 dac~;
#X obj 282 237 gemwin 20;
#X obj 284 422 pix_texture;
#X obj 284 445 rectangle 4 3;
#X obj 44 490 vd~ \$0-memory;
#X obj 44 459 sig~ 0;
#X msg 44 414 \$1 10;
#X obj 44 436 line;
#X obj 47 176 hsl 200 15 0 99 0 0 empty empty empty -2 -8 0 10 -262144
-1 -1 7800 1;
#X obj 373 363 pix_delay 100;
#N canvas 992 481 229 183 frames2ms 0;
#X obj 14 10 inlet;
#X obj 14 120 outlet;
#X obj 14 95 / 20;
#X obj 14 36 * 1000;
#X obj 58 57 t b f;
#X obj 58 36 r \$0-frames;
#X connect 0 0 3 0;
#X connect 2 0 1 0;
#X connect 3 0 2 0;
#X connect 4 0 2 0;
#X connect 4 1 2 1;
#X connect 5 0 4 0;
#X restore 44 353 pd frames2ms;
#X obj 373 339 pix_separator;
#X obj 284 338 pix_separator;
#X obj 29 514 -~;
#X obj 284 385 pix_diff;
#X obj 29 245 adc~ 1;
#X obj 44 146 s \$0-frames;
#X msg 300 215 frame \$1;
#X floatatom 44 127 5 0 0 0 - - -;
#X obj 56 274 delwrite~ \$0-memory 4950;
#X text 16 81 Let's subtract the present from the past.;
#X obj 29 544 *~;
#X obj 156 496 line~;
#X msg 156 472 \$1 10;
#X obj 156 413 vsl 15 49 0 1 0 0 empty \$0-volume empty 0 -9 0 10 -262144
-1 -1 2680 1;
#X text 175 427 volume;
#X obj 300 195 r \$0-frames;
#X text 28 600 Max Neupert - Bauhaus University Weimar 2009;
#X connect 0 0 8 0;
#X connect 4 0 8 0;
#X connect 5 0 6 0;
#X connect 6 0 19 0;
#X connect 6 0 18 0;
#X connect 9 0 10 0;
#X connect 11 0 20 1;
#X connect 12 0 11 0;
#X connect 13 0 14 0;
#X connect 14 0 12 0;
#X connect 15 0 16 1;
#X connect 15 0 17 0;
#X connect 16 0 21 1;
#X connect 17 0 13 0;
#X connect 18 0 16 0;
#X connect 19 0 21 0;
#X connect 20 0 28 0;
#X connect 21 0 9 0;
#X connect 22 0 26 0;
#X connect 22 0 20 0;
#X connect 24 0 8 0;
#X connect 25 0 23 0;
#X connect 28 0 7 1;
#X connect 28 0 7 0;
#X connect 29 0 28 1;
#X connect 30 0 29 0;
#X connect 31 0 30 0;
#X connect 33 0 24 0;
