#N canvas 609 34 618 646 10;
#X declare -lib Gem;
#X msg 216 161 0 \, destroy;
#N canvas 0 22 171 156 init 0;
#X obj 24 41 loadbang;
#X msg 35 64 \; pd dsp 1;
#X obj 25 16 declare -lib Gem;
#X obj 24 121 s \$0-volume;
#X msg 24 100 0.6;
#X connect 0 0 1 0;
#X connect 0 0 4 0;
#X connect 4 0 3 0;
#X restore 446 82 pd init;
#X obj 184 137 cnv 15 20 20 empty empty 1 6 10 0 14 -261234 -66577
0;
#X obj 12 12 cnv 15 480 60 empty empty A/V_delay 20 30 0 20 -262130
-99865 0;
#X msg 207 139 reset \, create \, 1;
#X obj 208 225 gemhead;
#X obj 208 270 pix_video;
#X obj 18 579 dac~;
#X obj 17 141 adc~;
#X obj 207 194 gemwin 20;
#X obj 347 496 pix_texture;
#X obj 347 519 rectangle 4 3;
#X obj 18 344 vd~ \$0-memory;
#X obj 208 247 alpha;
#X obj 347 474 colorRGB;
#X obj 208 496 pix_texture;
#X obj 208 519 rectangle 4 3;
#X obj 208 430 translateXYZ 0 0 -0.02;
#X obj 487 496 pix_texture;
#X obj 487 519 rectangle 4 3;
#X obj 347 405 translateXYZ 0 0 -0.01;
#X obj 487 475 colorRGB;
#X msg 392 451 0.7;
#X msg 532 449 0.3;
#X obj 104 344 vd~ \$0-memory;
#X obj 18 536 *~;
#X obj 18 367 *~ 0.7;
#X obj 104 367 *~ 0.3;
#X msg 416 359 20;
#X obj 18 321 sig~ 1000;
#X msg 556 380 40;
#X obj 104 321 sig~ 2000;
#X obj 106 495 line~;
#X msg 106 471 \$1 10;
#X obj 17 184 delwrite~ \$0-memory 2000;
#X obj 106 412 vsl 15 49 0 1 0 0 empty \$0-volume empty 0 -9 0 10 -262144
-1 -1 2880 1;
#X obj 208 321 pix_separator;
#X obj 208 344 separator;
#X obj 347 319 pix_separator;
#X obj 347 341 separator;
#X obj 487 322 pix_separator;
#X obj 487 345 separator;
#X obj 347 382 pix_delay 21;
#X obj 487 404 pix_delay 41;
#X text 125 426 volume;
#X obj 392 430 loadbang;
#X obj 532 428 loadbang;
#X obj 556 360 loadbang;
#X obj 416 338 loadbang;
#X text 19 78 Hello echo! Caution: this can become really loud if you've
got no Headphones!;
#X obj 18 556 lop~ 900;
#X text 19 603 Max Neupert \, GMU - Bauhaus University Weimar 2009
;
#X connect 0 0 9 0;
#X connect 4 0 9 0;
#X connect 5 0 13 0;
#X connect 6 0 36 0;
#X connect 6 0 38 0;
#X connect 6 0 40 0;
#X connect 8 0 34 0;
#X connect 8 1 34 0;
#X connect 10 0 11 0;
#X connect 12 0 26 0;
#X connect 13 0 6 0;
#X connect 14 0 10 0;
#X connect 15 0 16 0;
#X connect 17 0 15 0;
#X connect 18 0 19 0;
#X connect 20 0 14 0;
#X connect 21 0 18 0;
#X connect 22 0 14 4;
#X connect 23 0 21 4;
#X connect 24 0 27 0;
#X connect 25 0 50 0;
#X connect 26 0 25 0;
#X connect 27 0 25 0;
#X connect 28 0 42 1;
#X connect 29 0 12 0;
#X connect 30 0 43 1;
#X connect 31 0 24 0;
#X connect 32 0 25 1;
#X connect 33 0 32 0;
#X connect 35 0 33 0;
#X connect 36 0 37 0;
#X connect 37 0 17 0;
#X connect 38 0 39 0;
#X connect 39 0 42 0;
#X connect 40 0 41 0;
#X connect 41 0 43 0;
#X connect 42 0 20 0;
#X connect 43 0 21 0;
#X connect 45 0 22 0;
#X connect 46 0 23 0;
#X connect 47 0 30 0;
#X connect 48 0 28 0;
#X connect 50 0 7 1;
#X connect 50 0 7 0;
