#N canvas 694 63 570 648 10;
#X declare -lib GEM;
#X declare -lib zexy;
#X declare -lib motex;
#X obj 412 -41 import GEM;
#X obj 18 -51 cnv 15 480 60 empty empty VLC+AppleScript 20 30 0 20
-262130 -99865 0;
#X obj 44 422 zexy/list2symbol;
#X obj 44 400 list;
#X obj 27 472 motex/system;
#N canvas 0 22 231 126 init 0;
#X obj 44 27 declare -lib zexy;
#X obj 43 49 declare -lib motex;
#X restore 451 20 pd init;
#X obj 44 160 bng 15 250 50 0 empty empty empty 17 7 0 10 -262144 -1
-1;
#X obj 44 180 openpanel;
#X obj 44 201 zexy/symbol2list /;
#X obj 44 221 zexy/list2symbol :;
#X msg 44 242 open file "\$1";
#X text 283 193 Play;
#X text 291 272 Play fullscreen;
#X text 27 22 Sometimes you may simply want to trigger a playback of
a video with Pure Data.;
#X msg 27 108 osascript -e 'tell application "Finder" to open application
file "VLC.app" of folder "Applications" of startup disk' &;
#X text 65 159 Open movie;
#X text 29 59 In OS X you may control VLC from within Pure Data through
AppleScript.;
#X msg 44 446 osascript -e 'tell application "VLC" to \$1' &;
#X text 391 115 open VLC application;
#X msg 212 194 play;
#X msg 212 217 stop;
#X msg 212 271 fullscreen;
#X msg 223 355 mute;
#X text 298 351 Mute/unmute switch;
#X text 291 296 Volume control;
#X msg 159 355 volume\$1;
#X obj 159 335 symbol;
#X msg 244 295 Down;
#X msg 213 295 Up;
#X text 284 216 Stop;
#X msg 213 242 previous;
#X msg 277 243 next;
#X text 316 242 playlist;
#X text 25 501 Max Neupert - Bauhaus-Universität Weimar 2011;
#X connect 2 0 17 0;
#X connect 3 0 2 0;
#X connect 6 0 7 0;
#X connect 7 0 8 0;
#X connect 8 0 9 0;
#X connect 9 0 10 0;
#X connect 10 0 3 0;
#X connect 14 0 4 0;
#X connect 17 0 4 0;
#X connect 19 0 3 0;
#X connect 20 0 3 0;
#X connect 21 0 3 0;
#X connect 22 0 3 0;
#X connect 25 0 3 0;
#X connect 26 0 25 0;
#X connect 27 0 26 0;
#X connect 28 0 26 0;
#X connect 30 0 3 0;
#X connect 31 0 3 0;
