#N canvas 814 49 510 775 10;
#X declare -lib Gem;
#X declare -lib zexy;
#X msg 39 139 create \, 1;
#X msg 46 160 0 \, destroy;
#X obj 332 240 pix_texture;
#X obj 173 437 pix_data;
#X obj 39 228 gemwin 12;
#X obj 173 240 pix_rgba;
#X obj 332 307 rectangle 4 3;
#X obj 251 162 pix_video;
#N canvas 0 22 450 300 (subpatch) 0;
#X array \$0-camera 515 float 4;
#X coords 0 1 514 0 200 140 1;
#X restore 238 568 graph;
#X obj 218 462 tabwrite \$0-camera;
#X obj 212 316 f;
#X obj 41 475 hsl 128 15 0 127 0 0 empty \$0-tone empty -2 -8 0 10
-262144 -1 -1 4700 1;
#X obj 108 538 mtof;
#X obj 38 691 dac~;
#X obj 203 342 t f f;
#X obj 108 586 tabosc4~ \$0-camera;
#X obj 203 369 / 515;
#X msg 218 414 0.5;
#X obj 241 315 + 1;
#X text 31 102 http://www.mediaartnet.org/artist/fischinger/biography/
;
#X obj 218 392 loadbang;
#X msg 54 205 frame \$1;
#X floatatom 54 184 5 1 60 0 - - -;
#X obj 332 217 pix_separator;
#X obj 173 217 pix_separator;
#X obj 251 140 gemhead;
#X obj 108 562 sig~;
#X obj 73 562 mtof;
#X obj 73 611 tabosc4~ \$0-camera;
#X obj 73 586 sig~;
#X obj 73 539 - 7;
#X obj 38 586 mtof;
#X obj 38 635 tabosc4~ \$0-camera;
#X obj 38 611 sig~;
#X obj 38 563 - 3;
#X obj 173 264 repeat 516;
#X obj 270 315 % 516;
#X obj 173 287 t b a b;
#X obj 371 265 tgl 15 0 empty empty empty 17 7 0 10 -262144 -1 -1 0
1;
#N canvas 0 22 450 300 line 0;
#X obj 29 60 translateXYZ 0 0 0.1;
#X obj 29 37 gemhead;
#X obj 29 83 rectangle 4 0.01;
#X connect 0 0 2 0;
#X connect 1 0 0 0;
#X restore 445 159 pd line;
#N canvas 0 22 312 198 init 0;
#X obj 21 26 loadbang;
#X msg 33 55 \; pd dsp 1;
#X obj 21 121 s \$0-tone;
#X msg 21 96 47;
#X obj 121 26 declare -lib Gem;
#X obj 121 48 declare -lib zexy;
#X connect 0 0 1 0;
#X connect 0 0 3 0;
#X connect 3 0 2 0;
#X restore 445 138 pd init;
#X obj 38 495 t f f f;
#X obj 38 666 *~ 0.4;
#X text 31 114 http://beta.see-this-sound.at/werke/296;
#X obj 15 472 cnv 15 20 20 empty empty 2 6 10 0 14 -261234 -66577 0
;
#X obj 16 137 cnv 15 20 20 empty empty 1 6 10 0 14 -261234 -66577 0
;
#X obj 14 -18 cnv 15 480 60 empty empty Camera_to_wavetable 20 30 0
20 -262130 -99865 0;
#X text 31 47 This Patch fills the grey-values of a centered horizontal
line throufh the video image in a wavetable and plays it.;
#X text 30 74 Print ornament_sound.pdf and hold the patterns in front
of the camera. Inspired by the Work of Oskar Fischinger:;
#X obj 323 417 - 515;
#X obj 323 439 abs;
#X obj 332 284 mn-flip;
#X text 22 716 Max Neupert - Bauhaus Universität Weimar 2008;
#X connect 0 0 4 0;
#X connect 1 0 4 0;
#X connect 2 0 51 0;
#X connect 3 2 9 0;
#X connect 5 0 35 0;
#X connect 7 0 24 0;
#X connect 7 0 23 0;
#X connect 10 0 14 0;
#X connect 10 0 18 0;
#X connect 11 0 41 0;
#X connect 12 0 26 0;
#X connect 14 0 16 0;
#X connect 14 1 49 0;
#X connect 15 0 42 0;
#X connect 16 0 3 2;
#X connect 17 0 3 3;
#X connect 18 0 36 0;
#X connect 20 0 17 0;
#X connect 21 0 4 0;
#X connect 22 0 21 0;
#X connect 23 0 2 0;
#X connect 24 0 5 0;
#X connect 25 0 7 0;
#X connect 26 0 15 0;
#X connect 27 0 29 0;
#X connect 28 0 42 0;
#X connect 29 0 28 0;
#X connect 30 0 27 0;
#X connect 31 0 33 0;
#X connect 32 0 42 0;
#X connect 33 0 32 0;
#X connect 34 0 31 0;
#X connect 35 0 37 0;
#X connect 36 0 10 1;
#X connect 37 0 3 0;
#X connect 37 1 3 1;
#X connect 37 2 10 0;
#X connect 38 0 51 1;
#X connect 41 0 34 0;
#X connect 41 1 30 0;
#X connect 41 2 12 0;
#X connect 42 0 13 1;
#X connect 42 0 13 0;
#X connect 49 0 50 0;
#X connect 50 0 9 1;
#X connect 51 0 6 0;
