#N canvas 667 33 620 784 10;
#X declare -lib Gem;
#X declare -lib zexy;
#X msg 25 106 0 \, destroy;
#X obj 184 419 pix_data;
#X obj 184 222 pix_rgba;
#X text 18 695 Max Neupert \, GMU - Bauhaus University Weimar 2008
;
#N canvas 0 22 450 300 (subpatch) 0;
#X array \$0-gemwin 515 float 4;
#X coords 0 1 514 0 200 140 1;
#X restore 234 537 graph;
#X obj 223 298 f;
#X obj 20 444 hsl 128 15 0 127 0 0 empty \$0-tone empty -2 -8 0 10
-262144 -1 -1 5500 1;
#X obj 87 507 mtof;
#X obj 17 660 dac~;
#X obj 214 324 t f f;
#X obj 214 351 / 515;
#X msg 229 396 0.5;
#X obj 252 297 + 1;
#X obj 229 374 loadbang;
#X msg 33 151 frame \$1;
#X floatatom 33 130 5 1 60 0 - #0-framerate -;
#X obj 87 531 sig~;
#X obj 52 531 mtof;
#X obj 52 555 sig~;
#X obj 52 508 - 7;
#X obj 17 555 mtof;
#X obj 17 580 sig~;
#X obj 17 532 - 3;
#X obj 184 246 repeat 516;
#X obj 281 297 % 516;
#X obj 184 269 t b a b;
#N canvas 990 546 450 300 line 0;
#X obj 29 37 gemhead 51;
#X obj 29 83 rectangle 4 0.005;
#X obj 29 60 translateXYZ 0 0 2.9;
#X connect 0 0 2 0;
#X connect 2 0 1 0;
#X restore 506 23 pd line;
#N canvas 154 270 287 332 init 0;
#X obj 21 26 loadbang;
#X msg 40 55 \; pd dsp 1;
#X obj 21 126 s \$0-preset;
#X msg 21 101 0;
#X obj 121 26 declare -lib Gem;
#X obj 121 48 declare -lib zexy;
#X connect 0 0 1 0;
#X connect 0 0 3 0;
#X connect 3 0 2 0;
#X restore 506 2 pd init;
#X obj 17 464 t f f f;
#X obj 358 63 cnv 15 20 20 empty empty 2 6 10 0 14 -261234 -66577 0
;
#X obj 17 63 cnv 15 20 20 empty empty 1 6 10 0 14 -261234 -66577 0
;
#X obj 184 129 gemhead 50;
#X msg 195 174 snap;
#X msg 255 164 0 0;
#X obj 255 139 loadbang;
#X msg 285 164 516 516;
#X obj 184 196 pix_snap;
#X obj 229 444 tabwrite \$0-gemwin;
#X obj 87 555 tabosc4~ \$0-gemwin;
#X obj 52 580 tabosc4~ \$0-gemwin;
#X obj 17 604 tabosc4~ \$0-gemwin;
#X obj 184 151 t a b;
#X obj 357 293 rotateXYZ;
#X obj 377 244 hsl 100 15 0 360 0 0 empty \$0-torusX empty -2 -8 0
10 -262144 -1 -1 2475 1;
#X obj 12 -10 cnv 15 480 60 empty empty Gem_to_wavetable 20 30 0 20
-262130 -99865 0;
#X obj 394 268 hsl 100 15 0 360 0 0 empty \$0-torusY empty -2 -8 0
10 -262144 -1 -1 2475 1;
#X obj 17 392 world_light;
#X obj 18 289 gemhead 10;
#X obj 357 209 gemhead 20;
#X obj 18 370 rotateXYZ;
#X obj 55 350 hsl 100 15 0 360 0 0 empty \$0-lightY empty -2 -8 0 10
-262144 -1 -1 82 1;
#X obj 38 331 hsl 100 15 0 360 0 0 empty \$0-lightX empty -2 -8 0 10
-262144 -1 -1 82 1;
#X obj 357 361 torus 2 40 0.5;
#X obj 387 320 hsl 100 15 0.06 3 0 0 empty \$0-torussize empty -2 -8
0 10 -262144 -1 -1 1818 1;
#X obj 441 339 hsl 100 15 0.06 2 0 0 empty \$0-torusR empty -2 -8 0
10 -262144 -1 -1 4797 1;
#X obj 17 635 *~ 0.3;
#X obj 500 196 tgl 15 0 empty \$0-oscillate empty 17 7 0 10 -262144
-1 -1 0 1;
#X obj 500 240 f;
#X obj 528 240 + 1;
#X obj 555 240 % 360;
#X obj 500 218 metro 1;
#X obj 16 214 gemwin 32;
#N canvas 0 22 450 300 presets 0;
#X obj 51 31 inlet;
#X obj 51 56 sel 0 1 2 3 4 5 6 7;
#X obj 54 607 s \$0-torusX;
#X obj 71 583 s \$0-torusY;
#X obj 88 562 s \$0-torusR;
#X obj 105 538 s \$0-torussize;
#X obj 122 516 s \$0-lightX;
#X obj 139 492 s \$0-lightY;
#X obj 156 471 s \$0-speed;
#X obj 173 448 s \$0-tone;
#X obj 190 428 s \$0-framerate;
#X obj 205 406 s \$0-oscillate;
#X obj 54 379 unpack f f f f f f f f f f f;
#X msg 57 345 0 0 1 0.6 0 90 3 40 32 0;
#X msg 83 295 90 90 1 0.6 3 3 3 55 32 0;
#X msg 96 270 90 90 1 0.4 3 3 1 70 32 1;
#X msg 110 245 0 0 1 0.6 0 90 3 45 32 0;
#X msg 135 195 90 90 1 0.6 3 3 3 75 32 0;
#X msg 123 220 0 90 2 0.4 90 270 1 80 32 1;
#X msg 149 170 280 90 0.2 2 3 3 1 84 38 1;
#X msg 70 320 90 90 1 0.4 80 0 3 50 32 1;
#X connect 0 0 1 0;
#X connect 1 0 13 0;
#X connect 1 1 20 0;
#X connect 1 2 14 0;
#X connect 1 3 15 0;
#X connect 1 4 16 0;
#X connect 1 5 18 0;
#X connect 1 6 17 0;
#X connect 1 7 19 0;
#X connect 12 0 2 0;
#X connect 12 1 3 0;
#X connect 12 2 4 0;
#X connect 12 3 5 0;
#X connect 12 4 6 0;
#X connect 12 5 7 0;
#X connect 12 6 8 0;
#X connect 12 7 9 0;
#X connect 12 8 10 0;
#X connect 12 9 11 0;
#X connect 13 0 12 0;
#X connect 14 0 12 0;
#X connect 15 0 12 0;
#X connect 16 0 12 0;
#X connect 17 0 12 0;
#X connect 18 0 12 0;
#X connect 19 0 12 0;
#X connect 20 0 12 0;
#X restore 361 107 pd presets;
#X floatatom 539 196 5 0 0 0 - #0-speed -;
#X obj 361 86 hradio 15 1 0 8 empty \$0-preset empty 0 -8 0 10 -262144
-1 -1 2;
#X msg 43 189 color \$1 \$1 \$1;
#X obj 46 171 hsl 100 15 0 1 0 0 empty empty empty -2 -8 0 10 -262144
-1 -1 0 1;
#X msg 18 85 reset \, dimen 516 516 \, FSAA 4 \, lighting 1 \, create
\, 1;
#X connect 0 0 61 0;
#X connect 1 2 37 0;
#X connect 2 0 23 0;
#X connect 5 0 9 0;
#X connect 5 0 12 0;
#X connect 6 0 28 0;
#X connect 7 0 16 0;
#X connect 9 0 10 0;
#X connect 9 1 37 1;
#X connect 10 0 1 2;
#X connect 11 0 1 3;
#X connect 12 0 24 0;
#X connect 13 0 11 0;
#X connect 14 0 61 0;
#X connect 15 0 14 0;
#X connect 16 0 38 0;
#X connect 17 0 18 0;
#X connect 18 0 39 0;
#X connect 19 0 17 0;
#X connect 20 0 21 0;
#X connect 21 0 40 0;
#X connect 22 0 20 0;
#X connect 23 0 25 0;
#X connect 24 0 5 1;
#X connect 25 0 1 0;
#X connect 25 1 1 1;
#X connect 25 2 5 0;
#X connect 28 0 22 0;
#X connect 28 1 19 0;
#X connect 28 2 7 0;
#X connect 31 0 41 0;
#X connect 32 0 36 0;
#X connect 33 0 36 1;
#X connect 34 0 33 0;
#X connect 34 0 35 0;
#X connect 35 0 36 2;
#X connect 36 0 2 0;
#X connect 38 0 55 0;
#X connect 39 0 55 0;
#X connect 40 0 55 0;
#X connect 41 0 36 0;
#X connect 41 1 32 0;
#X connect 42 0 52 0;
#X connect 43 0 42 1;
#X connect 45 0 42 2;
#X connect 47 0 49 0;
#X connect 48 0 42 0;
#X connect 49 0 46 0;
#X connect 50 0 49 2;
#X connect 51 0 49 1;
#X connect 53 0 52 1;
#X connect 54 0 52 3;
#X connect 55 0 8 1;
#X connect 55 0 8 0;
#X connect 56 0 60 0;
#X connect 57 0 58 0;
#X connect 57 0 42 2;
#X connect 58 0 59 0;
#X connect 59 0 57 1;
#X connect 60 0 57 0;
#X connect 63 0 60 1;
#X connect 64 0 62 0;
#X connect 65 0 61 0;
#X connect 66 0 65 0;
#X connect 67 0 61 0;
