#N canvas 667 33 620 784 10;
#X declare -lib Gem;
#X declare -lib zexy;
#X msg 30 145 0 \, destroy;
#X text 21 716 Max Neupert \, GMU - Bauhaus University Weimar 2008
;
#N canvas 0 22 450 300 (subpatch) 0;
#X array \$0-right 515 float 2;
#X coords 0 1 515 0 200 140 1;
#X restore 21 526 graph;
#X obj 176 282 hsl 128 15 0 127 0 0 empty \$0-tone empty -2 -8 0 10
-262144 -1 -1 8000 1;
#X msg 38 190 frame \$1;
#X floatatom 38 172 5 1 60 0 - #0-framerate -;
#N canvas 0 22 287 332 init 0;
#X obj 23 26 loadbang;
#X msg 35 56 \; pd dsp 1;
#X msg 23 99 0;
#X obj 23 119 s \$0-preset;
#X obj 121 26 declare -lib Gem;
#X obj 121 48 declare -lib zexy;
#X connect 0 0 1 0;
#X connect 0 0 2 0;
#X connect 2 0 3 0;
#X restore 501 11 pd init;
#X obj 364 101 cnv 15 20 20 empty empty 2 6 10 0 14 -261234 -66577
0;
#X obj 22 102 cnv 15 20 20 empty empty 1 6 10 0 14 -261234 -66577 0
;
#X obj 365 283 rotateXYZ;
#X obj 385 234 hsl 100 15 0 360 0 0 empty \$0-torusX empty -2 -8 0
10 -262144 -1 -1 0 1;
#X obj 12 0 cnv 15 480 60 empty empty Gem_to_wavetable 20 30 0 20 -262130
-99865 0;
#X obj 402 258 hsl 100 15 0 360 0 0 empty \$0-torusY empty -2 -8 0
10 -262144 -1 -1 2475 1;
#X obj 173 250 world_light;
#X obj 173 165 gemhead 10;
#X obj 365 199 gemhead 20;
#X obj 173 228 rotateXYZ;
#X obj 210 208 hsl 100 15 0 360 0 0 empty \$0-lightY empty -2 -8 0
10 -262144 -1 -1 7425 1;
#X obj 193 189 hsl 100 15 0 360 0 0 empty \$0-lightX empty -2 -8 0
10 -262144 -1 -1 2475 1;
#X obj 365 351 torus 2 40 0.5;
#X obj 395 310 hsl 100 15 0.06 3 0 0 empty \$0-torussize empty -2 -8
0 10 -262144 -1 -1 1145 1;
#X obj 449 329 hsl 100 15 0.06 2 0 0 empty \$0-torusR empty -2 -8 0
10 -262144 -1 -1 9900 1;
#X obj 508 186 tgl 15 0 empty \$0-oscillate empty 17 7 0 10 -262144
-1 -1 0 1;
#X obj 508 230 f;
#X obj 536 230 + 1;
#X obj 563 230 % 360;
#X obj 508 208 metro 1;
#X obj 21 253 gemwin 32;
#N canvas 0 22 459 664 presets 1;
#X obj 51 31 inlet;
#X obj 54 623 s \$0-torusX;
#X obj 71 599 s \$0-torusY;
#X obj 88 578 s \$0-torusR;
#X obj 105 554 s \$0-torussize;
#X obj 122 532 s \$0-lightX;
#X obj 139 508 s \$0-lightY;
#X obj 156 487 s \$0-speed;
#X obj 173 464 s \$0-tone;
#X obj 190 444 s \$0-framerate;
#X obj 205 422 s \$0-oscillate;
#X obj 219 402 s \$0-grey;
#X obj 54 379 unpack f f f f f f f f f f f f;
#X msg 57 345 0 0 1 0.6 0 90 3 40 2 0 0;
#X msg 70 320 90 90 1 0.4 80 0 3 50 25 1 0.1;
#X msg 80 295 90 90 1 0.6 3 3 3 55 5 0 0.2;
#X msg 96 270 90 90 1 0.4 3 3 1 70 25 1 1;
#X msg 110 245 0 0 1 0.6 0 90 3 45 2 0 0;
#X msg 123 220 0 90 2 0.4 90 270 1 80 25 1 0.2;
#X msg 135 195 90 90 1 0.6 3 3 3 75 5 0 0;
#X obj 51 56 sel 0 1 2 3 4 5 6 7 8;
#X msg 149 170 280 90 0.2 2 330 3 1 84 25 1 0.1;
#X msg 160 144 237 234 0.68 1.73 330 50 22 74 21 1 0.05;
#X connect 0 0 20 0;
#X connect 12 0 1 0;
#X connect 12 1 2 0;
#X connect 12 2 3 0;
#X connect 12 3 4 0;
#X connect 12 4 5 0;
#X connect 12 5 6 0;
#X connect 12 6 7 0;
#X connect 12 7 8 0;
#X connect 12 8 9 0;
#X connect 12 9 10 0;
#X connect 12 10 11 0;
#X connect 13 0 12 0;
#X connect 14 0 12 0;
#X connect 15 0 12 0;
#X connect 16 0 12 0;
#X connect 17 0 12 0;
#X connect 18 0 12 0;
#X connect 19 0 12 0;
#X connect 20 0 13 0;
#X connect 20 1 14 0;
#X connect 20 2 15 0;
#X connect 20 3 16 0;
#X connect 20 4 17 0;
#X connect 20 5 18 0;
#X connect 20 6 19 0;
#X connect 20 7 21 0;
#X connect 20 8 22 0;
#X connect 21 0 12 0;
#X connect 22 0 12 0;
#X restore 364 146 pd presets;
#X floatatom 547 186 5 0 0 0 - #0-speed -;
#X obj 364 125 hradio 15 1 0 9 empty \$0-preset empty 0 -8 0 10 -262144
-1 -1 5;
#X msg 48 228 color \$1 \$1 \$1;
#X obj 51 210 hsl 100 15 0 1 0 0 empty \$0-grey empty -2 -8 0 10 -262144
-1 -1 1980 1;
#N canvas 0 22 450 300 (subpatch) 0;
#X array \$0-left 515 float 2;
#X coords 0 1 515 0 200 140 1;
#X restore 21 366 graph;
#X msg 23 124 dimen 516 516 \, FSAA 4 \, stereo 2 \, lighting 1 \,
create \, 1;
#N canvas 0 22 473 461 stereo 0;
#X obj 41 314 pix_data;
#X obj 41 117 pix_rgba;
#X obj 80 193 f;
#X obj 71 219 t f f;
#X obj 71 243 / 515;
#X msg 86 291 0.5;
#X obj 109 192 + 1;
#X obj 86 269 loadbang;
#X obj 41 141 repeat 516;
#X obj 138 192 % 516;
#X obj 41 164 t b a b;
#X obj 41 24 gemhead 50;
#X msg 52 69 snap;
#X msg 112 59 0 0;
#X obj 112 34 loadbang;
#X msg 142 59 516 516;
#X obj 41 91 pix_snap;
#X obj 41 46 t a b;
#X obj 63 340 unpack f f f;
#X obj 63 365 tabwrite \$0-right;
#X obj 162 265 t f f;
#X obj 97 389 tabwrite \$0-left;
#X connect 0 1 18 0;
#X connect 1 0 8 0;
#X connect 2 0 3 0;
#X connect 2 0 6 0;
#X connect 3 0 4 0;
#X connect 3 1 20 0;
#X connect 4 0 0 2;
#X connect 5 0 0 3;
#X connect 6 0 9 0;
#X connect 7 0 5 0;
#X connect 8 0 10 0;
#X connect 9 0 2 1;
#X connect 10 0 0 0;
#X connect 10 1 0 1;
#X connect 10 2 2 0;
#X connect 11 0 17 0;
#X connect 12 0 16 0;
#X connect 13 0 16 1;
#X connect 14 0 13 0;
#X connect 14 0 15 0;
#X connect 15 0 16 2;
#X connect 16 0 1 0;
#X connect 17 0 16 0;
#X connect 17 1 12 0;
#X connect 18 0 19 0;
#X connect 18 1 21 0;
#X connect 20 0 19 1;
#X connect 20 1 21 1;
#X restore 21 304 pd stereo;
#X text 19 66 Let's make it really stereo! Look at it with red-green
goggles.;
#N canvas 0 22 450 300 tones 0;
#X obj 29 16 inlet;
#X obj 196 138 mtof;
#X obj 29 369 dac~;
#X obj 196 162 sig~;
#X obj 37 141 mtof;
#X obj 37 165 sig~;
#X obj 37 118 - 7;
#X obj 109 142 mtof;
#X obj 109 167 sig~;
#X obj 109 119 - 3;
#X obj 29 42 t f f f;
#X obj 29 340 *~ 0.3;
#X obj 196 344 *~ 0.3;
#X obj 32 249 tabosc4~ \$0-right;
#X obj 30 305 tabosc4~ \$0-right;
#X obj 194 276 tabosc4~ \$0-left;
#X obj 196 245 tabosc4~ \$0-left;
#X obj 31 274 tabosc4~ \$0-right;
#X obj 195 306 tabosc4~ \$0-left;
#X connect 0 0 10 0;
#X connect 1 0 3 0;
#X connect 3 0 13 0;
#X connect 3 0 16 0;
#X connect 4 0 5 0;
#X connect 5 0 15 0;
#X connect 5 0 17 0;
#X connect 6 0 4 0;
#X connect 7 0 8 0;
#X connect 8 0 14 0;
#X connect 8 0 18 0;
#X connect 9 0 7 0;
#X connect 10 0 6 0;
#X connect 10 1 9 0;
#X connect 10 2 1 0;
#X connect 11 0 2 0;
#X connect 12 0 2 1;
#X connect 13 0 11 0;
#X connect 14 0 11 0;
#X connect 15 0 12 0;
#X connect 16 0 12 0;
#X connect 17 0 11 0;
#X connect 18 0 12 0;
#X restore 173 302 pd tones;
#X connect 0 0 27 0;
#X connect 3 0 37 0;
#X connect 4 0 27 0;
#X connect 5 0 4 0;
#X connect 9 0 19 0;
#X connect 10 0 9 1;
#X connect 12 0 9 2;
#X connect 14 0 16 0;
#X connect 15 0 9 0;
#X connect 16 0 13 0;
#X connect 17 0 16 2;
#X connect 18 0 16 1;
#X connect 20 0 19 1;
#X connect 21 0 19 3;
#X connect 22 0 26 0;
#X connect 23 0 24 0;
#X connect 23 0 9 2;
#X connect 24 0 25 0;
#X connect 25 0 23 1;
#X connect 26 0 23 0;
#X connect 29 0 26 1;
#X connect 30 0 28 0;
#X connect 31 0 27 0;
#X connect 32 0 31 0;
#X connect 34 0 27 0;
