#N canvas 610 47 632 731 10;
#X declare -lib Gem;
#N canvas 0 22 171 156 init 0;
#X obj 24 41 loadbang;
#X msg 35 64 \; pd dsp 1;
#X obj 25 16 declare -lib Gem;
#X obj 24 121 s \$0-volume;
#X msg 24 100 0.6;
#X connect 0 0 1 0;
#X connect 0 0 4 0;
#X connect 4 0 3 0;
#X restore 446 82 pd init;
#X obj 12 12 cnv 15 480 60 empty empty recording 20 30 0 20 -262130
-99865 0;
#X obj 16 201 cnv 15 500 50 empty empty empty 20 12 0 14 -232576 -66577
0;
#N canvas 539 146 482 351 screenshots 0;
#X obj 219 118 pix_write;
#X obj 229 146 pix_writer;
#X msg 242 84 0 0;
#X msg 287 79 512 512;
#X msg 244 45 bang;
#X obj 23 18 gemhead;
#X obj 23 40 t a a;
#X obj 23 103 spigot 0;
#X obj 24 127 t a b;
#X obj 81 104 tgl 15 0 empty empty empty 17 7 0 10 -262144 -1 -1 0
1;
#X obj 24 151 t b a;
#X obj 24 221 t b a;
#X obj 24 244 t a;
#X obj 24 267 pix_writer;
#X obj 81 35 gemkeyboard;
#X obj 81 58 sel 49;
#X msg 81 81 1;
#X msg 24 176 snap;
#X obj 163 34 inlet;
#X obj 24 198 pix_snap 0 0 512 512;
#X connect 2 0 0 1;
#X connect 3 0 0 2;
#X connect 4 0 0 0;
#X connect 5 0 6 0;
#X connect 6 0 7 0;
#X connect 7 0 8 0;
#X connect 8 0 10 0;
#X connect 8 1 9 0;
#X connect 9 0 7 1;
#X connect 10 0 17 0;
#X connect 10 1 19 0;
#X connect 11 0 12 0;
#X connect 11 1 12 0;
#X connect 12 0 13 0;
#X connect 14 0 15 0;
#X connect 15 0 16 0;
#X connect 16 0 9 0;
#X connect 17 0 19 0;
#X connect 18 0 9 0;
#X connect 19 0 11 0;
#X restore 24 231 pd screenshots;
#X msg 24 210 1;
#X text 53 211 <- click for screenshots or spacebar when Gem is active
;
#X text 120 230 find pictures in the root directory;
#X text -71 217 still picture;
#X obj 17 256 cnv 15 250 380 empty empty empty 20 12 0 14 -203904 -66577
0;
#X obj 271 476 cnv 15 250 160 empty empty empty 20 12 0 14 -204800
-66577 0;
#X obj 25 284 t b a;
#X obj 25 263 gemhead 100;
#X obj 25 590 pix_record;
#X msg 45 392 codeclist;
#X msg 37 372 dialog;
#X obj 37 433 t a;
#X obj 49 454 bng 15 250 50 0 empty empty empty 0 -6 0 8 -258699 -1
-1;
#N canvas 641 427 450 300 savepanel 0;
#X obj 26 21 inlet;
#X obj 26 250 outlet;
#X obj 26 195 t b a;
#X obj 26 48 savepanel;
#X msg 26 158 set file \$1;
#X obj 210 254 outlet;
#X obj 210 199 t b a;
#X msg 210 162 set open \$1;
#X text 211 275 audio;
#X text 26 273 video;
#X obj 26 133 makefilename %s.mov;
#X obj 210 134 makefilename %s.wav;
#X connect 0 0 3 0;
#X connect 2 0 1 0;
#X connect 2 1 1 0;
#X connect 3 0 10 0;
#X connect 3 0 11 0;
#X connect 4 0 2 0;
#X connect 6 0 5 0;
#X connect 6 1 5 0;
#X connect 7 0 6 0;
#X connect 10 0 4 0;
#X connect 11 0 7 0;
#X restore 49 474 pd savepanel;
#X msg 59 539 record \$1;
#X obj 59 519 tgl 15 0 empty empty empty 0 -6 0 8 -260097 -1 -1 0 1
;
#X obj 49 564 t a;
#X floatatom 53 614 5 0 0 0 - - -;
#X obj 329 611 writesf~ 2;
#X obj 337 564 catch~ mainsR;
#X msg 271 591 start;
#X msg 285 561 stop;
#X obj 130 538 sel 1;
#X text 67 454 type filename without extension;
#X text 91 614 frames;
#X msg 49 496 file /Users/max/untitled5.mov;
#X msg 282 488 open /Users/max/untitled5.wav;
#X obj 25 330 pix_yuv;
#X msg 54 412 codec PNG;
#X obj 25 309 pix_snap 0 0 512 512;
#X text 153 310 set resolution here;
#X text -70 265 video;
#X obj 337 522 throw~ mainsR;
#X text 352 535 put these in your patch;
#X text 19 658 Max Neupert \, GMU - Bauhaus University Weimar 2010
;
#X msg 29 146 0 \, destroy;
#X msg 20 124 reset \, dimen 512 512 \, create \, 1;
#X obj 20 179 gemwin 24;
#X text 16 79 Documentation is everything. Use this patch to record
a QuickTime movie and a waveform which you'll have to sync in a video
editor later.;
#X obj 423 521 throw~ mainsL;
#X obj 423 563 catch~ mainsL;
#X obj 25 351 pix_flip;
#X msg 139 335 none;
#X msg 139 355 horizontal;
#X msg 139 375 vertical;
#X msg 139 395 both;
#X text 274 454 audio (in sync to video);
#X connect 4 0 3 0;
#X connect 10 0 33 0;
#X connect 10 1 33 0;
#X connect 11 0 10 0;
#X connect 12 1 21 0;
#X connect 13 0 15 0;
#X connect 14 0 15 0;
#X connect 15 0 12 0;
#X connect 16 0 17 0;
#X connect 17 0 29 0;
#X connect 17 1 30 0;
#X connect 18 0 20 0;
#X connect 19 0 18 0;
#X connect 19 0 26 0;
#X connect 20 0 12 0;
#X connect 23 0 22 0;
#X connect 24 0 22 0;
#X connect 25 0 22 0;
#X connect 26 0 24 0;
#X connect 26 1 25 0;
#X connect 29 0 20 0;
#X connect 30 0 22 0;
#X connect 31 0 45 0;
#X connect 32 0 15 0;
#X connect 33 0 31 0;
#X connect 39 0 41 0;
#X connect 40 0 41 0;
#X connect 44 0 22 1;
#X connect 45 0 12 0;
#X connect 46 0 45 1;
#X connect 47 0 45 1;
#X connect 48 0 45 1;
#X connect 49 0 45 1;
