#N canvas 143 126 674 733 10;
#X floatatom 349 603 5 0 0 0 - - -;
#X obj 349 497 list prepend send;
#X obj 349 522 list trim;
#X msg 497 546 disconnect;
#X obj 349 583 netsend -u -b;
#X msg 472 498 connect localhost 12345;
#X msg 482 522 connect 127.1.0.1 12345;
#X obj 349 475 oscformat frame;
#X obj 44 13 cnv 15 480 60 empty empty Play_video_via_Open_Sound_Control
20 30 0 20 -262130 -99865 0;
#X obj 323 654 dac~;
#X obj 322 259 vline~;
#X obj 73 242 hsl 195 15 0 1 0 0 \$0-scratch empty empty -2 -8 0 10
-262144 -1 -1 0 1;
#X obj 323 624 tabread4~ \$0-soundfile;
#N canvas 0 50 450 300 (subpatch) 0;
#X array \$0-soundfile 214599 float 2;
#X coords 0 1 214599 -1 200 140 1;
#X restore 70 92 graph;
#X obj 73 257 hsl 195 15 0 1 0 0 \$0-in \$0-in-init empty -2 -8 0 10
-262144 -1 -1 0 1;
#X obj 73 272 hsl 195 15 0 1 0 0 \$0-out \$0-out-init empty -2 -8 0
10 -262144 -1 -1 19400 1;
#X obj 73 232 hsl 195 10 0 1 0 0 empty \$0-playhead empty -2 -8 0 10
-228856 -1 -1 0 1;
#N canvas 374 613 325 204 scratch 0;
#X obj 23 134 outlet;
#X obj 23 59 *;
#X obj 38 37 r \$0-samples;
#X obj 23 16 r \$0-scratch;
#X obj 23 106 pack f f;
#X obj 68 60 r \$0-speed;
#X obj 68 84 * 900;
#X floatatom 88 137 5 0 0 0 - - -;
#X connect 1 0 4 0;
#X connect 2 0 1 1;
#X connect 3 0 1 0;
#X connect 4 0 0 0;
#X connect 5 0 6 0;
#X connect 5 0 7 0;
#X connect 6 0 4 1;
#X restore 396 223 pd scratch;
#X text 49 257 in;
#X text 46 272 out;
#X text 22 243 scratch;
#X text 14 228 playhead;
#X obj 73 287 hsl 195 15 1 0.0001 0 0 \$0-speed \$0-speed-init empty
-2 -8 0 10 -262144 -1 -1 14551 1;
#X text 31 287 speed;
#N canvas 163 563 475 300 init 0;
#X obj 14 42 loadbang;
#X msg 44 73 \; pd dsp 1;
#X obj 37 141 s \$0-in-init;
#X msg 37 121 0;
#X msg 25 172 1;
#X obj 25 192 s \$0-out-init;
#X msg 14 226 0.25;
#X obj 14 247 s \$0-speed-init;
#X text 15 12 this subpatch initializes the patch;
#X text 118 82 switches audio comptation on;
#X text 116 123 sets the in-point to the beginning of the sample;
#X text 115 175 sets the outpoint to the end of the sample;
#X text 114 229 sets speed to normal speed;
#X connect 0 0 1 0;
#X connect 0 0 3 0;
#X connect 0 0 4 0;
#X connect 0 0 6 0;
#X connect 3 0 2 0;
#X connect 4 0 5 0;
#X connect 6 0 7 0;
#X restore 62 596 pd init;
#N canvas 0 50 450 300 inpoint 0;
#X obj 24 -59 inlet;
#X obj 24 59 outlet;
#X obj 24 -33 t l b;
#X obj 66 -33 r \$0-in;
#X obj 66 9 *;
#X obj 51 30 f;
#X obj 81 -12 r \$0-samples;
#X connect 0 0 2 0;
#X connect 2 0 1 0;
#X connect 2 1 5 0;
#X connect 3 0 4 0;
#X connect 4 0 5 1;
#X connect 5 0 1 0;
#X connect 6 0 4 1;
#X restore 322 223 pd inpoint;
#N canvas 0 50 450 300 outpoint 0;
#X obj 38 -25 inlet;
#X obj 38 174 outlet;
#X obj 38 149 pack f f;
#X obj 82 19 *;
#X obj 97 -2 r \$0-samples;
#X obj 82 -24 r \$0-out;
#X obj 38 123 f;
#X obj 65 123 f;
#X obj 38 1 t b b;
#X obj 236 -23 inlet;
#X connect 0 0 8 0;
#X connect 2 0 1 0;
#X connect 3 0 6 1;
#X connect 4 0 3 1;
#X connect 5 0 3 0;
#X connect 6 0 2 0;
#X connect 7 0 2 1;
#X connect 8 0 6 0;
#X connect 8 1 7 0;
#X connect 9 0 7 1;
#X restore 322 201 pd outpoint;
#N canvas 0 50 450 300 speed 0;
#X obj 21 194 outlet;
#X obj 21 -85 r \$0-out;
#X obj 47 -64 r \$0-in;
#X obj 62 -43 r \$0-samples;
#X obj 47 -16 *;
#X obj 21 32 -;
#X obj 47 5 t b f;
#X obj 21 55 / 48;
#X obj 21 -16 *;
#X obj 21 171 abs;
#X obj 21 148 *;
#X obj 52 79 r \$0-speed;
#X obj 52 123 t b f;
#X text 54 56 Samplingrate of the audio file;
#X obj 52 102 * 4;
#X floatatom 88 153 5 0 0 0 - - -;
#X connect 1 0 8 0;
#X connect 2 0 4 0;
#X connect 3 0 4 1;
#X connect 3 0 8 1;
#X connect 4 0 6 0;
#X connect 5 0 7 0;
#X connect 6 0 5 0;
#X connect 6 1 5 1;
#X connect 7 0 10 0;
#X connect 8 0 5 0;
#X connect 9 0 0 0;
#X connect 10 0 9 0;
#X connect 11 0 14 0;
#X connect 12 0 10 0;
#X connect 12 1 10 1;
#X connect 12 1 15 0;
#X connect 14 0 12 0;
#X restore 358 133 pd speed;
#X obj 358 155 t f f;
#X obj 331 110 tgl 15 0 empty empty empty 17 7 0 10 -262144 -1 -1 0
1;
#X obj 331 178 metro;
#X text 348 107 play looping;
#X text 348 85 play once;
#X obj 322 87 bng 15 250 50 0 empty empty empty 17 7 0 10 -262144 -1
-1;
#X text 215 298 |;
#X text 182 308 normal speed;
#X text 61 331 choose in \, out and speed;
#X obj 39 329 cnv 15 20 20 empty empty 2 6 10 0 14 -261234 -66577 0
;
#X text 433 92 play or loop;
#X obj 293 95 cnv 15 20 20 empty empty 4 6 10 0 14 -261234 -66577 0
;
#X obj 63 465 soundfiler;
#X obj 63 528 / 48;
#X obj 63 486 t f f;
#X obj 90 509 s \$0-samples;
#X obj 63 548 s \$0-miliseconds;
#X msg 63 444 read -resize bass2.aiff \$1;
#X obj 63 422 symbol \$0-soundfile;
#X obj 349 287 snapshot~;
#X obj 349 333 /;
#X obj 349 432 int;
#X obj 349 453 change;
#X obj 364 310 r \$0-samples;
#X obj 388 388 s \$0-playhead;
#X obj 349 410 + 0.5;
#X obj 349 389 * 134;
#X text 58 691 Max Neupert \, GMU - Bauhaus-Universität Weimar 2018
;
#X obj 63 398 loadbang;
#X obj 473 474 cnv 15 20 20 empty empty 1 6 10 0 14 -261234 -66577
0;
#X text 502 475 launch and connect;
#X obj 126 402 bng 15 250 50 0 empty empty empty 17 7 0 10 -262144
-1 -1;
#X obj 470 261 metro 1;
#X obj 470 239 tgl 15 0 empty empty empty 17 7 0 10 -262144 -1 -1 0
1;
#X obj 388 367 speedlimit 100;
#X connect 1 0 2 0;
#X connect 2 0 4 0;
#X connect 3 0 4 0;
#X connect 4 0 0 0;
#X connect 5 0 4 0;
#X connect 6 0 4 0;
#X connect 7 0 1 0;
#X connect 10 0 12 0;
#X connect 10 0 47 0;
#X connect 12 0 9 0;
#X connect 12 0 9 1;
#X connect 17 0 10 0;
#X connect 25 0 10 0;
#X connect 26 0 25 0;
#X connect 27 0 28 0;
#X connect 28 0 30 1;
#X connect 28 1 26 1;
#X connect 29 0 30 0;
#X connect 30 0 26 0;
#X connect 33 0 26 0;
#X connect 40 0 42 0;
#X connect 41 0 44 0;
#X connect 42 0 41 0;
#X connect 42 1 43 0;
#X connect 45 0 40 0;
#X connect 46 0 45 0;
#X connect 47 0 48 0;
#X connect 48 0 54 0;
#X connect 48 0 62 0;
#X connect 49 0 50 0;
#X connect 50 0 7 0;
#X connect 51 0 48 1;
#X connect 53 0 49 0;
#X connect 54 0 53 0;
#X connect 56 0 46 0;
#X connect 59 0 46 0;
#X connect 60 0 47 0;
#X connect 61 0 60 0;
#X connect 62 0 52 0;
