#N canvas 624 34 593 608 10;
#X declare -lib Gem;
#X msg -42 92 create \, 1;
#X msg -20 115 0 \, destroy;
#X obj -46 12 cnv 15 480 60 empty empty reading_the_mic_to_trigger
20 30 0 20 -262130 -99865 0;
#X text -35 563 Max Neupert \, GMU - Bauhaus University Weimar 2009
;
#X obj -42 147 gemwin;
#N canvas 0 22 192 154 init 0;
#X obj 15 16 declare -lib Gem;
#X obj 17 40 loadbang;
#X msg 17 63 \; pd dsp 1;
#X connect 1 0 2 0;
#X restore 388 81 pd init;
#X obj 218 117 adc~ 1;
#X obj 153 237 env~;
#X obj 283 235 env~;
#X obj 96 460 translateXYZ -0.2 0 0;
#X obj 283 290 t f f;
#X obj 232 460 translateXYZ 0.2 0 0;
#X obj 283 262 / 30;
#X obj 153 263 / 30;
#X obj 153 288 t f f;
#X obj 96 488 rectangle 0.2 0;
#X obj 232 489 rectangle 0.2 0;
#X obj -42 279 gemhead;
#X obj -42 487 rectangle 0.2 0;
#X obj 45 245 env~;
#X obj 45 296 t f f;
#X obj -42 459 translateXYZ -0.6 0 0;
#X obj 423 236 env~;
#X obj 423 291 t f f;
#X obj 359 488 rectangle 0.2 0;
#X obj 359 459 translateXYZ 0.6 0 0;
#X obj 421 201 hip~ 4000;
#X obj 45 202 lop~ 50;
#X obj 45 271 / 40;
#X obj 153 204 bp~ 200 200;
#X obj 283 203 bp~ 800 200;
#X obj 96 430 separator;
#X obj -42 427 separator;
#X obj 232 430 separator;
#X obj 359 428 separator;
#X obj -42 355 translateXYZ 0 -3 0;
#X obj 423 263 / 50;
#X obj -42 333 rotateXYZ;
#X floatatom -8 305 5 0 0 0 - - -;
#X connect 0 0 4 0;
#X connect 1 0 4 0;
#X connect 6 0 26 0;
#X connect 6 0 27 0;
#X connect 6 0 29 0;
#X connect 6 0 30 0;
#X connect 7 0 13 0;
#X connect 8 0 12 0;
#X connect 9 0 15 0;
#X connect 10 0 16 2;
#X connect 10 1 11 2;
#X connect 11 0 16 0;
#X connect 12 0 10 0;
#X connect 13 0 14 0;
#X connect 14 0 15 2;
#X connect 14 1 9 2;
#X connect 17 0 37 0;
#X connect 19 0 28 0;
#X connect 20 0 18 2;
#X connect 20 1 21 2;
#X connect 21 0 18 0;
#X connect 22 0 36 0;
#X connect 23 0 24 2;
#X connect 23 1 25 2;
#X connect 25 0 24 0;
#X connect 26 0 22 0;
#X connect 27 0 19 0;
#X connect 28 0 20 0;
#X connect 29 0 7 0;
#X connect 30 0 8 0;
#X connect 31 0 9 0;
#X connect 32 0 21 0;
#X connect 33 0 11 0;
#X connect 34 0 25 0;
#X connect 35 0 31 0;
#X connect 35 0 32 0;
#X connect 35 0 33 0;
#X connect 35 0 34 0;
#X connect 36 0 23 0;
#X connect 37 0 35 0;
#X connect 38 0 37 3;
#X connect 38 0 37 2;
