#N canvas 714 62 598 723 10;
#X declare -lib Gem;
#X obj 279 442 osc~;
#X msg 49 133 create \, 1;
#X msg 71 156 0 \, destroy;
#X obj 233 131 gemhead;
#X obj 233 153 pix_video;
#X obj 233 174 pix_mean_color;
#X obj 171 131 gemhead;
#X obj 171 224 color;
#X obj 171 245 square 3;
#X obj 279 529 dac~;
#X obj 314 199 t l l;
#X obj 341 225 unpack f f f f;
#X floatatom 355 260 5 0 0 0 - - -;
#X obj 49 188 gemwin 50;
#X floatatom 393 260 5 0 0 0 - - -;
#X floatatom 428 260 5 0 0 0 - - -;
#X floatatom 464 260 5 0 0 0 - - -;
#X text 353 283 R;
#X text 393 284 G;
#X text 426 284 B;
#X text 465 285 Alpha;
#X obj 279 484 *~ 0.2;
#X obj 279 353 line;
#X msg 279 326 \$1 50;
#X obj 279 376 mtof;
#X obj 279 417 line~;
#X msg 279 397 \$1 10;
#X obj 279 301 * 150;
#X obj 24 25 cnv 15 480 60 empty empty reading_the_camera_to_make_sound
20 30 0 20 -262130 -99865 0;
#X obj 391 120 declare -lib Gem;
#X text 34 649 Max Neupert \, GMU - Bauhaus University Weimar 2010
;
#X text 31 551 Challenge;
#X text 41 573 Connect this patch to the scratching example 11-av-speed.pd
to control the playhead position by the brightnes of the camera image.
;
#X connect 0 0 21 0;
#X connect 1 0 13 0;
#X connect 2 0 13 0;
#X connect 3 0 4 0;
#X connect 4 0 5 0;
#X connect 5 1 10 0;
#X connect 6 0 7 0;
#X connect 7 0 8 0;
#X connect 10 0 7 1;
#X connect 10 1 11 0;
#X connect 11 0 12 0;
#X connect 11 0 27 0;
#X connect 11 1 14 0;
#X connect 11 2 15 0;
#X connect 11 3 16 0;
#X connect 21 0 9 1;
#X connect 21 0 9 0;
#X connect 22 0 24 0;
#X connect 23 0 22 0;
#X connect 24 0 26 0;
#X connect 25 0 0 0;
#X connect 26 0 25 0;
#X connect 27 0 23 0;
