#N canvas 578 27 838 809 10;
#X declare -lib Gem;
#X declare -lib iemlib;
#X declare -lib iemlib;
#X declare -lib Gem;
#X declare -lib list-abs;
#X obj 14 12 cnv 15 480 60 empty empty A/V_beatslicer 20 30 0 20 -262130
-99865 0;
#X obj 36 753 dac~;
#X obj 44 679 vline~;
#X msg 336 125 create \, 1;
#X msg 348 147 0 \, destroy;
#X obj 44 707 tabread4~ \$0-soundfile;
#X obj 300 342 bng 15 250 50 0 empty empty empty 17 7 0 10 -262144
-1 -1;
#N canvas 0 22 450 300 (subpatch) 0;
#X array \$0-soundfile 184324 float 2;
#X coords 0 1 184324 -1 200 140 1;
#X restore 44 121 graph;
#N canvas 525 115 431 529 loading_files 0;
#X obj 150 67 inlet;
#X obj 177 476 outlet;
#X obj 19 394 soundfiler;
#X obj 19 457 / 48;
#X obj 19 415 t f f;
#X msg 177 424 open \$1;
#X obj 46 438 s \$0-samples;
#X obj 19 477 s \$0-miliseconds;
#X obj 177 447 pix_buffer_filmopen \$0-speicher;
#X obj 19 308 t a b;
#X obj 46 328 symbol \$0-soundfile;
#X obj 19 351 pack s s;
#X msg 19 373 read -resize \$1 \$2;
#X obj 150 91 openpanel;
#X text 197 214 loading the video into the buffer;
#X obj 150 114 splitfilename .;
#X obj 150 140 t s s;
#X obj 150 166 makefilename %s.aiff;
#X obj 177 189 makefilename %s.mov;
#X text 181 13 Storage for the video;
#X obj 16 21 pix_buffer \$0-speicher 800;
#X text 185 26 maximum 800 frames in this case;
#X obj 267 113 declare -lib iemlib;
#X connect 0 0 13 0;
#X connect 2 0 4 0;
#X connect 3 0 7 0;
#X connect 4 0 3 0;
#X connect 4 1 6 0;
#X connect 5 0 8 0;
#X connect 8 0 1 0;
#X connect 9 0 11 0;
#X connect 9 1 10 0;
#X connect 10 0 11 1;
#X connect 11 0 12 0;
#X connect 12 0 2 0;
#X connect 13 0 15 0;
#X connect 15 0 16 0;
#X connect 16 0 17 0;
#X connect 16 1 18 0;
#X connect 17 0 9 0;
#X connect 18 0 5 0;
#X restore 300 611 pd loading_files;
#X obj 47 261 hsl 195 10 0 1 0 0 empty \$0-playhead empty -2 -8 0 10
-228856 -1 -1 0 1;
#X text -12 257 playhead;
#N canvas 860 70 580 428 video_processing 0;
#X obj 172 32 inlet~;
#X obj 270 32 inlet;
#X obj 103 300 pix_texture;
#X obj 103 65 gemhead;
#X obj 270 149 unpack f f f;
#X obj 130 200 *;
#X obj 130 110 snapshot~;
#X obj 103 87 t a b;
#X obj 130 156 /;
#X obj 130 222 int;
#X obj 130 244 change;
#X obj 103 371 rectangle 3 2;
#X text 388 203 this takes care of the;
#X text 412 217 right aspect ratio;
#X text 449 231 of the video;
#X obj 343 177 cnv 15 45 110 empty empty empty 20 12 0 14 -261234 -66577
0;
#X obj 346 183 /;
#X obj 346 260 *;
#X obj 346 204 t b f;
#X msg 346 226 3;
#X obj 103 275 pix_buffer_read \$0-speicher;
#X obj 145 133 r \$0-samples;
#X obj 145 178 r \$0-frames;
#X obj 270 183 s \$0-frames;
#X obj 20 243 s \$0-playhead;
#X obj 20 222 speedlim 100;
#X obj 103 326 alpha;
#X obj 227 33 inlet;
#X obj 227 63 line;
#X obj 103 349 colorRGB 1 1 1 1;
#X connect 0 0 6 0;
#X connect 1 0 4 0;
#X connect 2 0 26 0;
#X connect 3 0 7 0;
#X connect 4 0 23 0;
#X connect 4 1 16 0;
#X connect 4 2 16 1;
#X connect 5 0 9 0;
#X connect 6 0 8 0;
#X connect 7 0 20 0;
#X connect 7 1 6 0;
#X connect 8 0 5 0;
#X connect 8 0 25 0;
#X connect 9 0 10 0;
#X connect 10 0 20 1;
#X connect 16 0 18 0;
#X connect 17 0 11 1;
#X connect 18 0 19 0;
#X connect 18 1 17 1;
#X connect 19 0 17 0;
#X connect 19 0 11 2;
#X connect 20 0 2 0;
#X connect 21 0 8 1;
#X connect 22 0 5 1;
#X connect 25 0 24 0;
#X connect 26 0 29 0;
#X connect 27 0 28 0;
#X connect 28 0 29 4;
#X connect 29 0 11 0;
#X restore 189 706 pd video_processing;
#N canvas 0 22 450 300 init 0;
#X obj 14 42 loadbang;
#X msg 44 73 \; pd dsp 1;
#X obj 37 141 s \$0-in-init;
#X msg 37 121 0;
#X msg 25 172 1;
#X obj 25 192 s \$0-out-init;
#X msg 14 226 0.25;
#X obj 14 247 s \$0-speed-init;
#X text 15 12 this subpatch initializes the patch;
#X text 118 82 switches audio comptation on;
#X text 116 123 sets the in-point to the beginning of the sample;
#X text 115 175 sets the outpoint to the end of the sample;
#X text 114 229 sets speed to normal speed;
#X obj 298 10 declare -lib iemlib;
#X obj 299 30 declare -lib Gem;
#X obj 298 53 declare -lib list-abs;
#X connect 0 0 1 0;
#X connect 0 0 3 0;
#X connect 0 0 4 0;
#X connect 0 0 6 0;
#X connect 3 0 2 0;
#X connect 4 0 5 0;
#X connect 6 0 7 0;
#X restore 410 92 pd init;
#X msg 357 188 frame \$1;
#X floatatom 357 170 5 0 0 0 - - -;
#X obj 336 209 gemwin 30;
#X obj 313 123 cnv 15 20 20 empty empty 1 6 10 0 14 -261234 -66577
0;
#X text 399 125 create Gem window;
#X text 317 341 load files;
#X obj 277 340 cnv 15 20 20 empty empty 2 6 10 0 14 -261234 -66577
0;
#X obj 438 458 r \$0-samples;
#X obj 423 342 hradio 15 1 0 6 empty empty empty 0 -8 0 10 -262144
-1 -1 0;
#X msg 423 388 4;
#X msg 452 388 8;
#X msg 482 388 16;
#X msg 513 387 32;
#X msg 544 387 64;
#X obj 423 502 /;
#X obj 423 481 f;
#X obj 423 418 t b f;
#X obj 457 438 s \$0-slices;
#X obj 119 337 r \$0-slices;
#X obj 44 512 list-dripslow;
#X obj 44 284 tgl 15 0 empty empty empty 17 7 0 10 -262144 -1 -1 0
1;
#X obj 44 315 metro 200;
#X obj 423 553 / 48;
#X obj 423 575 s \$0-slicetime;
#X obj 71 611 *;
#X obj 432 527 s \$0-slicesize;
#X obj 144 532 r \$0-slicesize;
#X obj 44 578 + 1;
#X obj 44 611 *;
#X obj 89 632 r \$0-slicetime;
#X obj 44 654 pack f f;
#X obj 144 552 t f f;
#X obj 422 603 list-urn;
#X obj 95 294 r \$0-slicetime;
#X obj 422 627 list-random;
#X obj 146 438 list prepend set;
#X obj 146 459 list trim;
#X obj 119 418 t b l;
#X msg 119 480 5 0 2 6 1 7 4 7;
#X floatatom 81 563 5 0 0 0 - - -;
#X obj 44 541 t f f;
#X obj 44 335 t b b;
#X obj 423 362 sel 0 1 2 3 4 5;
#X msg 575 387 128;
#X obj 119 398 list-random 64;
#X obj 119 376 t b f;
#X text 18 78 a A/V beatslicer;
#X text 262 259 video taken from http://www.youtube.com/watch?v=Qon-dnwuwC0
;
#N canvas 0 22 450 300 count 0;
#X obj 102 70 inlet;
#X obj 207 70 inlet;
#X obj 125 186 outlet;
#X obj 135 132 f;
#X obj 162 132 + 1;
#X obj 135 158 sel;
#X obj 177 107 - 1;
#X msg 149 108 0;
#X obj 149 86 t b f;
#X connect 0 0 3 0;
#X connect 1 0 8 0;
#X connect 3 0 4 0;
#X connect 3 0 5 0;
#X connect 4 0 3 1;
#X connect 5 0 7 0;
#X connect 5 0 2 0;
#X connect 6 0 5 1;
#X connect 7 0 3 1;
#X connect 8 0 7 0;
#X connect 8 1 6 0;
#X restore 64 376 pd count;
#X obj 623 449 vradio 15 1 0 8 empty empty empty 0 -8 0 10 -262144
-1 -1 0;
#X obj 638 449 vradio 15 1 0 8 empty empty empty 0 -8 0 10 -262144
-1 -1 0;
#X obj 653 449 vradio 15 1 0 8 empty empty empty 0 -8 0 10 -262144
-1 -1 0;
#X obj 668 449 vradio 15 1 0 8 empty empty empty 0 -8 0 10 -262144
-1 -1 0;
#X obj 683 449 vradio 15 1 0 8 empty empty empty 0 -8 0 10 -262144
-1 -1 0;
#X obj 698 449 vradio 15 1 0 8 empty empty empty 0 -8 0 10 -262144
-1 -1 0;
#X obj 713 449 vradio 15 1 0 8 empty empty empty 0 -8 0 10 -262144
-1 -1 0;
#X obj 728 449 vradio 15 1 0 8 empty empty empty 0 -8 0 10 -262144
-1 -1 0;
#X obj 624 347 tgl 15 0 empty empty empty 17 7 0 10 -262144 -1 -1 0
1;
#X floatatom 212 318 5 0 0 0 - - -;
#X obj 624 370 metro 480;
#X obj 624 392 f;
#X obj 651 392 + 1;
#X obj 678 392 % 8;
#X obj 623 587 s \$0-grid;
#X obj -17 479 r \$0-grid;
#X obj 624 413 sel 0 1 2 3 4 5 6 7;
#X obj 623 434 hradio 15 1 0 8 empty empty empty 0 -8 0 10 -262144
-1 -1 0;
#X connect 2 0 5 0;
#X connect 2 0 11 0;
#X connect 3 0 15 0;
#X connect 4 0 15 0;
#X connect 5 0 1 0;
#X connect 5 0 1 1;
#X connect 6 0 8 0;
#X connect 8 0 11 2;
#X connect 13 0 15 0;
#X connect 14 0 13 0;
#X connect 20 0 28 1;
#X connect 21 0 55 0;
#X connect 22 0 29 0;
#X connect 23 0 29 0;
#X connect 24 0 29 0;
#X connect 25 0 29 0;
#X connect 26 0 29 0;
#X connect 27 0 35 0;
#X connect 27 0 38 0;
#X connect 28 0 27 0;
#X connect 29 0 28 0;
#X connect 29 1 27 1;
#X connect 29 1 30 0;
#X connect 31 0 58 0;
#X connect 31 0 61 1;
#X connect 32 0 53 0;
#X connect 33 0 34 0;
#X connect 34 0 54 0;
#X connect 35 0 36 0;
#X connect 37 0 2 0;
#X connect 39 0 44 0;
#X connect 40 0 41 0;
#X connect 41 0 43 0;
#X connect 42 0 43 1;
#X connect 43 0 2 0;
#X connect 44 0 41 1;
#X connect 44 1 37 1;
#X connect 46 0 34 1;
#X connect 46 0 71 0;
#X connect 48 0 49 0;
#X connect 49 0 51 0;
#X connect 50 0 51 0;
#X connect 50 1 48 0;
#X connect 51 0 32 1;
#X connect 53 0 40 0;
#X connect 53 1 37 0;
#X connect 53 1 52 0;
#X connect 54 0 32 0;
#X connect 54 1 61 0;
#X connect 55 0 22 0;
#X connect 55 1 23 0;
#X connect 55 2 24 0;
#X connect 55 3 25 0;
#X connect 55 4 26 0;
#X connect 55 5 56 0;
#X connect 56 0 29 0;
#X connect 57 0 50 0;
#X connect 58 0 57 0;
#X connect 58 1 57 1;
#X connect 58 1 57 2;
#X connect 61 0 51 0;
#X connect 62 0 76 0;
#X connect 63 0 76 0;
#X connect 64 0 76 0;
#X connect 65 0 76 0;
#X connect 66 0 76 0;
#X connect 67 0 76 0;
#X connect 68 0 76 0;
#X connect 69 0 76 0;
#X connect 70 0 72 0;
#X connect 72 0 73 0;
#X connect 73 0 74 0;
#X connect 73 0 78 0;
#X connect 73 0 79 0;
#X connect 74 0 75 0;
#X connect 75 0 73 1;
#X connect 77 0 53 0;
#X connect 78 0 62 0;
#X connect 78 1 63 0;
#X connect 78 2 64 0;
#X connect 78 3 65 0;
#X connect 78 4 66 0;
#X connect 78 5 67 0;
#X connect 78 6 68 0;
#X connect 78 7 69 0;
