#N canvas 656 261 581 387 10;
#X obj 157 136 until;
#X obj 157 113 max;
#X obj 140 85 t b f b b;
#X obj 140 58 inlet;
#X obj 140 246 outlet;
#N canvas 0 0 450 300 message 0;
#X obj 163 65 inlet;
#X obj 163 225 outlet;
#X msg 163 93 6 8 5 2 7 0 3 1 9 4;
#X connect 0 0 2 0;
#X connect 2 0 1 0;
#X restore 140 218 pd message;
#X msg 157 188 add2 \$1;
#X msg 226 188 set;
#X obj 240 58 inlet;
#N canvas 0 0 609 671 urne 0;
#X obj 228 591 tabread \$0-urn;
#X obj 158 541 tabwrite \$0-urn;
#X obj 228 470 t a a;
#X obj 158 400 - 1;
#X obj 107 264 select 0;
#X obj 158 513 tabread \$0-urn;
#X obj 369 345 outlet;
#X obj 228 619 outlet;
#X obj 296 33 inlet;
#X obj 107 36 inlet;
#X obj 296 87 f \$1;
#X obj 307 57 loadbang;
#X obj 201 84 b;
#X obj 228 447 random;
#N canvas 689 538 264 239 count-down 0;
#X obj 59 66 inlet;
#X obj 127 60 inlet;
#X obj 59 159 outlet;
#X text 123 37 count from?;
#X text 54 35 trigger;
#X obj 59 96 bang;
#X obj 85 131 - 1;
#X obj 59 131 f;
#X connect 0 0 5 0;
#X connect 1 0 7 1;
#X connect 5 0 7 0;
#X connect 6 0 7 1;
#X connect 7 0 6 0;
#X connect 7 0 2 0;
#X restore 107 231 pd count-down;
#X text 365 371 bang if urn empty;
#X text 203 641 urn selection;
#X msg 228 353 seed \$1;
#X obj 228 157 f;
#X obj 355 153 table \$0-urn \$1;
#X obj 158 372 t a b;
#X obj 107 59 route bang seed clear;
#N canvas 549 246 251 276 gate_2 0;
#X obj 68 18 inlet;
#X obj 84 65 inlet;
#X obj 68 212 outlet;
#X obj 100 191 outlet;
#X obj 68 92 f 0;
#X obj 68 118 select 0 1;
#X obj 68 41 b;
#X connect 0 0 6 0;
#X connect 1 0 4 1;
#X connect 4 0 5 0;
#X connect 5 0 2 0;
#X connect 5 1 3 0;
#X connect 6 0 4 0;
#X restore 107 188 pd gate_2;
#N canvas 0 0 450 300 init-urn-table 0;
#N canvas 0 0 450 300 count 0;
#X obj 158 193 + 1;
#X obj 122 158 until;
#X obj 122 194 f;
#X obj 122 101 inlet;
#X msg 167 157 0;
#X obj 122 120 t a b;
#X obj 122 224 outlet;
#X connect 0 0 2 1;
#X connect 1 0 2 0;
#X connect 2 0 0 0;
#X connect 2 0 6 0;
#X connect 3 0 5 0;
#X connect 4 0 2 1;
#X connect 5 0 1 0;
#X connect 5 1 4 0;
#X restore 117 197 pd count;
#X obj 117 218 t a a;
#X obj 117 249 tabwrite \$0-urn;
#X obj 147 173 s \$0-urn;
#X msg 147 148 resize \$1;
#X obj 117 82 t a a;
#X obj 117 49 inlet;
#X obj 147 128 change;
#X obj 147 105 int;
#X connect 0 0 1 0;
#X connect 1 0 2 0;
#X connect 1 1 2 1;
#X connect 4 0 3 0;
#X connect 5 0 0 0;
#X connect 5 1 8 0;
#X connect 6 0 5 0;
#X connect 7 0 4 0;
#X connect 8 0 7 0;
#X restore 354 131 pd init-urn-table;
#X obj 296 107 t b a a a;
#X obj 107 288 t b b;
#X msg 165 163 0;
#X msg 180 186 1;
#X connect 0 0 7 0;
#X connect 2 0 0 0;
#X connect 2 1 1 1;
#X connect 3 0 5 0;
#X connect 3 0 13 1;
#X connect 4 0 25 0;
#X connect 4 1 20 0;
#X connect 5 0 1 0;
#X connect 8 0 10 0;
#X connect 9 0 21 0;
#X connect 10 0 24 0;
#X connect 11 0 10 0;
#X connect 12 0 10 0;
#X connect 13 0 2 0;
#X connect 14 0 4 0;
#X connect 17 0 13 0;
#X connect 18 0 17 0;
#X connect 20 0 3 0;
#X connect 20 1 13 0;
#X connect 21 0 22 0;
#X connect 21 1 18 0;
#X connect 21 2 12 0;
#X connect 22 0 14 0;
#X connect 22 1 6 0;
#X connect 24 0 26 0;
#X connect 24 1 14 1;
#X connect 24 2 13 1;
#X connect 24 3 23 0;
#X connect 25 0 6 0;
#X connect 25 1 27 0;
#X connect 26 0 22 1;
#X connect 27 0 22 1;
#X restore 157 160 pd urne;
#X connect 0 0 9 0;
#X connect 1 0 0 0;
#X connect 2 0 5 0;
#X connect 2 1 1 0;
#X connect 2 2 9 1;
#X connect 2 3 7 0;
#X connect 3 0 2 0;
#X connect 5 0 4 0;
#X connect 6 0 5 0;
#X connect 7 0 5 0;
#X connect 8 0 9 1;
#X connect 9 0 6 0;
