#N canvas 608 238 666 550 10;
#X declare -lib Gem;
#X obj 92 202 makefilename %d.mov;
#X obj 120 65 + 1;
#X obj 92 64 f;
#X obj 149 66 % 10;
#X obj 93 88 + 1;
#X msg 94 255 open \$1;
#X obj 94 301 unpack f f f;
#X obj 94 335 s \$0-frames;
#X obj 305 36 pix_buffer \$0-video1 800;
#X obj 305 56 pix_buffer \$0-video2 800;
#X obj 305 77 pix_buffer \$0-video3 800;
#X obj 307 98 pix_buffer \$0-video4 800;
#X obj 307 119 pix_buffer \$0-video5 800;
#X obj 307 139 pix_buffer \$0-video6 800;
#X obj 306 158 pix_buffer \$0-video7 800;
#X obj 307 177 pix_buffer \$0-video8 800;
#X obj 307 195 pix_buffer \$0-video9 800;
#X obj 304 215 pix_buffer \$0-video10 800;
#X obj 94 278 pix_buffer_filmopen \$0-video;
#X msg 152 255 set \$1;
#X obj 152 225 makefilename \$0-video%d;
#X obj 92 131 t f f;
#X obj 92 40 until;
#X msg 92 18 10;
#X connect 0 0 5 0;
#X connect 1 0 3 0;
#X connect 2 0 1 0;
#X connect 2 0 4 0;
#X connect 3 0 2 1;
#X connect 4 0 21 0;
#X connect 5 0 18 0;
#X connect 6 0 7 0;
#X connect 18 0 6 0;
#X connect 19 0 18 0;
#X connect 20 0 19 0;
#X connect 21 0 0 0;
#X connect 21 1 20 0;
#X connect 22 0 2 0;
#X connect 23 0 22 0;
