#N canvas 609 34 618 646 10;
#X declare -lib Gem;
#X msg 216 161 0 \, destroy;
#N canvas 0 22 171 156 init 0;
#X obj 24 41 loadbang;
#X msg 35 64 \; pd dsp 1;
#X obj 25 16 declare -lib Gem;
#X obj 24 121 s \$0-volume;
#X msg 24 100 0.6;
#X connect 0 0 1 0;
#X connect 0 0 4 0;
#X connect 4 0 3 0;
#X restore 446 82 pd init;
#X obj 184 137 cnv 15 20 20 empty empty 1 6 10 0 14 -261234 -66577
0;
#X obj 12 12 cnv 15 480 60 empty empty A/V_delay 20 30 0 20 -262130
-99865 0;
#X msg 207 139 reset \, create \, 1;
#X obj 208 225 gemhead;
#X obj 208 270 pix_video;
#X obj 18 579 dac~;
#X obj 17 141 adc~;
#X obj 207 194 gemwin 20;
#X obj 18 344 vd~ \$0-memory;
#X obj 208 247 alpha;
#X obj 208 496 pix_texture;
#X obj 208 519 rectangle 4 3;
#X obj 104 344 vd~ \$0-memory;
#X obj 18 536 *~;
#X obj 18 367 *~ 0.7;
#X obj 104 367 *~ 0.3;
#X obj 18 321 sig~ 1000;
#X obj 104 321 sig~ 2000;
#X obj 106 495 line~;
#X msg 106 471 \$1 10;
#X obj 17 184 delwrite~ \$0-memory 2000;
#X obj 106 412 vsl 15 49 0 1 0 0 empty \$0-volume empty 0 -9 0 10 -262144
-1 -1 2880 1;
#X text 125 426 volume;
#X text 19 78 Hello echo! Caution: this can become really loud if you've
got no Headphones!;
#X obj 18 556 lop~ 900;
#X text 19 603 Max Neupert \, GMU - Bauhaus University Weimar 2009
;
#X floatatom 301 357 5 0 100 0 blur - -;
#X obj 208 399 pix_motionblur;
#X obj 301 380 / 100;
#X connect 0 0 9 0;
#X connect 4 0 9 0;
#X connect 5 0 11 0;
#X connect 6 0 29 0;
#X connect 8 0 22 0;
#X connect 8 1 22 0;
#X connect 10 0 16 0;
#X connect 11 0 6 0;
#X connect 12 0 13 0;
#X connect 14 0 17 0;
#X connect 15 0 26 0;
#X connect 16 0 15 0;
#X connect 17 0 15 0;
#X connect 18 0 10 0;
#X connect 19 0 14 0;
#X connect 20 0 15 1;
#X connect 21 0 20 0;
#X connect 23 0 21 0;
#X connect 26 0 7 1;
#X connect 26 0 7 0;
#X connect 28 0 30 0;
#X connect 29 0 12 0;
#X connect 30 0 29 1;
